REM DIRINDEX 1\2,1\3\5,1\3\6,1\4\7,1\4\8
REM DIRNAME cjc139,folder01,folder02,folder03,folder04,folder05,folder06,folder07
TITLE ""
FILE "EG_E1.5_20.mp3" MP3
  TRACK 01 AUDIO
    TITLE "0:"
    INDEX 01 00:00:00
  TRACK 02 AUDIO
    TITLE "2:cjc139_0656"
    INDEX 01 00:00:17
  TRACK 03 AUDIO
    TITLE "0:"
    INDEX 01 00:01:68
  TRACK 04 AUDIO
    TITLE "2:cjc139_0657"
    INDEX 01 00:03:19
  TRACK 05 AUDIO
    TITLE "0:"
    INDEX 01 00:05:36
  TRACK 06 AUDIO
    TITLE "2:cjc139_0658"
    INDEX 01 00:06:57
  TRACK 07 AUDIO
    TITLE "0:"
    INDEX 01 00:09:02
  TRACK 08 AUDIO
    TITLE "2:cjc139_0659"
    INDEX 01 00:10:23
  TRACK 09 AUDIO
    TITLE "0:"
    INDEX 01 00:13:49
  TRACK 10 AUDIO
    TITLE "2:cjc139_0660"
    INDEX 01 00:14:72
  TRACK 11 AUDIO
    TITLE "0:"
    INDEX 01 00:17:37
  TRACK 12 AUDIO
    TITLE "2:cjc139_0661"
    INDEX 01 00:18:56
  TRACK 13 AUDIO
    TITLE "0:"
    INDEX 01 00:21:00
  TRACK 14 AUDIO
    TITLE "2:cjc139_0662"
    INDEX 01 00:22:23
  TRACK 15 AUDIO
    TITLE "0:"
    INDEX 01 00:25:01
  TRACK 16 AUDIO
    TITLE "2:cjc139_0663"
    INDEX 01 00:26:22
  TRACK 17 AUDIO
    TITLE "0:"
    INDEX 01 00:28:53
  TRACK 18 AUDIO
    TITLE "2:cjc139_0664"
    INDEX 01 00:30:01
  TRACK 19 AUDIO
    TITLE "0:"
    INDEX 01 00:32:48
  TRACK 20 AUDIO
    TITLE "2:cjc139_0665"
    INDEX 01 00:34:00
  TRACK 21 AUDIO
    TITLE "0:"
    INDEX 01 00:35:64
  TRACK 22 AUDIO
    TITLE "2:cjc139_0666"
    INDEX 01 00:37:14
  TRACK 23 AUDIO
    TITLE "0:"
    INDEX 01 00:40:56
  TRACK 24 AUDIO
    TITLE "2:cjc139_0667"
    INDEX 01 00:42:02
  TRACK 25 AUDIO
    TITLE "0:"
    INDEX 01 00:45:32
  TRACK 26 AUDIO
    TITLE "2:cjc139_0668"
    INDEX 01 00:46:54
  TRACK 27 AUDIO
    TITLE "0:"
    INDEX 01 00:49:37
  TRACK 28 AUDIO
    TITLE "2:cjc139_0669"
    INDEX 01 00:50:58
  TRACK 29 AUDIO
    TITLE "0:"
    INDEX 01 00:52:37
  TRACK 30 AUDIO
    TITLE "2:cjc139_0670"
    INDEX 01 00:53:58
  TRACK 31 AUDIO
    TITLE "0:"
    INDEX 01 00:55:61
  TRACK 32 AUDIO
    TITLE "2:cjc139_0671"
    INDEX 01 00:57:09
  TRACK 33 AUDIO
    TITLE "0:"
    INDEX 01 01:00:06
  TRACK 34 AUDIO
    TITLE "2:cjc139_0672"
    INDEX 01 01:01:31
  TRACK 35 AUDIO
    TITLE "0:"
    INDEX 01 01:02:40
  TRACK 36 AUDIO
    TITLE "2:cjc139_0673"
    INDEX 01 01:03:63
  TRACK 37 AUDIO
    TITLE "0:"
    INDEX 01 01:05:64
  TRACK 38 AUDIO
    TITLE "2:cjc139_0674"
    INDEX 01 01:07:12
  TRACK 39 AUDIO
    TITLE "0:"
    INDEX 01 01:09:52
  TRACK 40 AUDIO
    TITLE "2:cjc139_0675"
    INDEX 01 01:11:00
  TRACK 41 AUDIO
    TITLE "0:"
    INDEX 01 01:13:49
  TRACK 42 AUDIO
    TITLE "2:cjc139_0676"
    INDEX 01 01:14:70
  TRACK 43 AUDIO
    TITLE "0:"
    INDEX 01 01:18:07
  TRACK 44 AUDIO
    TITLE "2:cjc139_0677"
    INDEX 01 01:19:30
  TRACK 45 AUDIO
    TITLE "0:"
    INDEX 01 01:22:11
  TRACK 46 AUDIO
    TITLE "2:cjc139_0678"
    INDEX 01 01:23:34
  TRACK 47 AUDIO
    TITLE "0:"
    INDEX 01 01:26:30
  TRACK 48 AUDIO
    TITLE "2:cjc139_0679"
    INDEX 01 01:27:51
  TRACK 49 AUDIO
    TITLE "0:"
    INDEX 01 01:29:72
  TRACK 50 AUDIO
    TITLE "2:cjc139_0680"
    INDEX 01 01:31:20
  TRACK 51 AUDIO
    TITLE "0:"
    INDEX 01 01:33:52
  TRACK 52 AUDIO
    TITLE "2:cjc139_0681"
    INDEX 01 01:35:00
  TRACK 53 AUDIO
    TITLE "0:"
    INDEX 01 01:38:30
  TRACK 54 AUDIO
    TITLE "2:cjc139_0682"
    INDEX 01 01:39:53
  TRACK 55 AUDIO
    TITLE "0:"
    INDEX 01 01:44:66
  TRACK 56 AUDIO
    TITLE "2:cjc139_0683"
    INDEX 01 01:46:12
  TRACK 57 AUDIO
    TITLE "0:"
    INDEX 01 01:49:65
  TRACK 58 AUDIO
    TITLE "2:cjc139_0684"
    INDEX 01 01:51:11
  TRACK 59 AUDIO
    TITLE "0:"
    INDEX 01 01:55:32
  TRACK 60 AUDIO
    TITLE "2:cjc139_0685"
    INDEX 01 01:56:53
  TRACK 61 AUDIO
    TITLE "0:"
    INDEX 01 01:59:16
  TRACK 62 AUDIO
    TITLE "2:cjc139_0686"
    INDEX 01 02:00:37
  TRACK 63 AUDIO
    TITLE "0:"
    INDEX 01 02:04:00
  TRACK 64 AUDIO
    TITLE "2:cjc139_0687"
    INDEX 01 02:05:23
  TRACK 65 AUDIO
    TITLE "0:"
    INDEX 01 02:09:09
  TRACK 66 AUDIO
    TITLE "2:cjc139_0688"
    INDEX 01 02:10:30
  TRACK 67 AUDIO
    TITLE "0:"
    INDEX 01 02:13:30
  TRACK 68 AUDIO
    TITLE "2:cjc139_0689"
    INDEX 01 02:14:53
  TRACK 69 AUDIO
    TITLE "0:"
    INDEX 01 02:16:58
  TRACK 70 AUDIO
    TITLE "2:cjc139_0690"
    INDEX 01 02:18:04
  TRACK 71 AUDIO
    TITLE "0:"
    INDEX 01 02:22:37
  TRACK 72 AUDIO
    TITLE "2:cjc139_0691"
    INDEX 01 02:23:58
  TRACK 73 AUDIO
    TITLE "0:"
    INDEX 01 02:27:26
  TRACK 74 AUDIO
    TITLE "2:cjc139_0692"
    INDEX 01 02:28:47
  TRACK 75 AUDIO
    TITLE "0:"
    INDEX 01 02:32:63
  TRACK 76 AUDIO
    TITLE "2:cjc139_0693"
    INDEX 01 02:34:11
  TRACK 77 AUDIO
    TITLE "0:"
    INDEX 01 02:36:43
  TRACK 78 AUDIO
    TITLE "2:cjc139_0694"
    INDEX 01 02:37:62
  TRACK 79 AUDIO
    TITLE "0:"
    INDEX 01 02:42:04
  TRACK 80 AUDIO
    TITLE "2:cjc139_0695"
    INDEX 01 02:43:23
  TRACK 81 AUDIO
    TITLE "0:"
    INDEX 01 02:46:31
  TRACK 82 AUDIO
    TITLE "2:cjc139_0696"
    INDEX 01 02:47:52
  TRACK 83 AUDIO
    TITLE "0:"
    INDEX 01 02:50:25
  TRACK 84 AUDIO
    TITLE "2:cjc139_0697"
    INDEX 01 02:51:46
  TRACK 85 AUDIO
    TITLE "0:"
    INDEX 01 02:53:65
  TRACK 86 AUDIO
    TITLE "2:cjc139_0698"
    INDEX 01 02:55:09
  TRACK 87 AUDIO
    TITLE "0:"
    INDEX 01 02:57:59
  TRACK 88 AUDIO
    TITLE "2:cjc139_0699"
    INDEX 01 02:59:07
  TRACK 89 AUDIO
    TITLE "0:"
    INDEX 01 03:01:64
  TRACK 90 AUDIO
    TITLE "2:cjc139_0700"
    INDEX 01 03:03:12
  TRACK 91 AUDIO
    TITLE "0:"
    INDEX 01 03:06:13
  TRACK 92 AUDIO
    TITLE "2:cjc139_0701"
    INDEX 01 03:07:36
  TRACK 93 AUDIO
    TITLE "0:"
    INDEX 01 03:10:24
  TRACK 94 AUDIO
    TITLE "2:cjc139_0702"
    INDEX 01 03:11:45
  TRACK 95 AUDIO
    TITLE "0:"
    INDEX 01 03:14:10
  TRACK 96 AUDIO
    TITLE "2:cjc139_0703"
    INDEX 01 03:15:33
  TRACK 97 AUDIO
    TITLE "0:"
    INDEX 01 03:18:51
  TRACK 98 AUDIO
    TITLE "2:cjc139_0704"
    INDEX 01 03:19:72
  TRACK 99 AUDIO
    TITLE "0:"
    INDEX 01 03:21:59
  TRACK 100 AUDIO
    TITLE "2:cjc139_0705"
    INDEX 01 03:23:05
  TRACK 101 AUDIO
    TITLE "0:"
    INDEX 01 03:26:49
  TRACK 102 AUDIO
    TITLE "2:cjc139_0706"
    INDEX 01 03:27:72
  TRACK 103 AUDIO
    TITLE "0:"
    INDEX 01 03:30:60
  TRACK 104 AUDIO
    TITLE "2:cjc139_0707"
    INDEX 01 03:32:10
  TRACK 105 AUDIO
    TITLE "0:"
    INDEX 01 03:34:62
  TRACK 106 AUDIO
    TITLE "2:cjc139_0708"
    INDEX 01 03:36:10
  TRACK 107 AUDIO
    TITLE "0:"
    INDEX 01 03:38:48
  TRACK 108 AUDIO
    TITLE "2:cjc139_0709"
    INDEX 01 03:39:69
  TRACK 109 AUDIO
    TITLE "0:"
    INDEX 01 03:41:58
  TRACK 110 AUDIO
    TITLE "2:cjc139_0710"
    INDEX 01 03:43:08
  TRACK 111 AUDIO
    TITLE "0:"
    INDEX 01 03:46:26
  TRACK 112 AUDIO
    TITLE "2:cjc139_0711"
    INDEX 01 03:47:45
  TRACK 113 AUDIO
    TITLE "0:"
    INDEX 01 03:50:37
  TRACK 114 AUDIO
    TITLE "2:cjc139_0712"
    INDEX 01 03:51:62
  TRACK 115 AUDIO
    TITLE "0:"
    INDEX 01 03:55:29
  TRACK 116 AUDIO
    TITLE "2:cjc139_0713"
    INDEX 01 03:56:52
  TRACK 117 AUDIO
    TITLE "0:"
    INDEX 01 03:58:31
  TRACK 118 AUDIO
    TITLE "2:cjc139_0714"
    INDEX 01 03:59:52
  TRACK 119 AUDIO
    TITLE "0:"
    INDEX 01 04:02:29
